<svg xmlns="http://www.w3.org/2000/svg" viewBox="0 0 96 96" role="img" aria-label="Playful laundry icon">
  <defs>
    <linearGradient id="bodyGradient" x1="0%" y1="0%" x2="0%" y2="100%">
      <stop offset="0%" stop-color="#ffe9dd" />
      <stop offset="100%" stop-color="#ffd3c0" />
    </linearGradient>
    <linearGradient id="drumGradient" x1="0%" y1="0%" x2="100%" y2="100%">
      <stop offset="0%" stop-color="#ff9a76" />
      <stop offset="100%" stop-color="#ff7f50" />
    </linearGradient>
  </defs>

  <!-- Shadow -->
  <ellipse cx="48" cy="82" rx="24" ry="5" fill="#a53a21" opacity="0.2" />

  <!-- Legs -->
  <path
    d="M34 70 C30 78 32 82 35 82 C38 82 39 78 40 74"
    stroke="#b1422a"
    stroke-width="3"
    stroke-linecap="round"
    fill="none"
  />
  <path
    d="M62 70 C66 78 64 82 61 82 C58 82 57 78 56 75"
    stroke="#b1422a"
    stroke-width="3"
    stroke-linecap="round"
    fill="none"
  />

  <!-- Arms -->
  <path
    d="M28 40 C16 42 18 52 24 52 C30 52 30 44 34 45"
    stroke="#b1422a"
    stroke-width="3"
    stroke-linecap="round"
    fill="none"
  />
  <path
    d="M68 40 C80 42 78 52 72 52 C66 52 66 44 62 45"
    stroke="#b1422a"
    stroke-width="3"
    stroke-linecap="round"
    fill="none"
  />

  <!-- Body -->
  <rect x="24" y="20" width="48" height="48" rx="6" fill="url(#bodyGradient)" stroke="#b1422a" stroke-width="2.5" />

  <!-- Top panel -->
  <rect x="26" y="22" width="44" height="12" rx="4" fill="#fff8f2" stroke="#b1422a" stroke-width="2" />
  <circle cx="62" cy="28" r="3" fill="#ff9a76" stroke="#b1422a" stroke-width="1.5" />
  <circle cx="72" cy="28" r="3" fill="#ff9a76" stroke="#b1422a" stroke-width="1.5" />

  <!-- Drum -->
  <circle cx="48" cy="48" r="16" fill="url(#drumGradient)" stroke="#b1422a" stroke-width="3" />
  <circle cx="48" cy="48" r="10" fill="#ffe9dd" stroke="#b1422a" stroke-width="2" />

  <!-- Face -->
  <ellipse cx="43" cy="46" rx="2.5" ry="4" fill="#b1422a" />
  <ellipse cx="53" cy="46" rx="2.5" ry="4" fill="#b1422a" />
  <path
    d="M40 52 C44 58 52 58 56 52"
    stroke="#b1422a"
    stroke-width="2"
    stroke-linecap="round"
    fill="none"
  />
  <path
    d="M44 52 C46 55 50 55 52 52"
    fill="none"
    stroke="#b1422a"
    stroke-width="1.5"
    stroke-linecap="round"
  />
</svg>